# xmcd CD database file
#
# Track frame offsets:
#	150
#	15490
#	31190
#	43647
#	57717
#	73690
#	93117
#	111870
#	131405
#
# Disc length: 1964 seconds
#
# Revision: 2
# Processed by: cddbd v1.5.2PL0 Copyright (c) Steve Scherf et al.
# Submitted via: CDex 1.51
#
DISCID=7107aa09
DTITLE=Danny Kortchmar - Kootch
DYEAR=1972
DGENRE=Rock
TTITLE0=Put Your Dancing Shoes On
TTITLE1=Up Jumped The Devil
TTITLE2=Got To Say So Long
TTITLE3=For Sentimental Reasons
TTITLE4=Burnt Child
TTITLE5=You're So Beautiful
TTITLE6=My Mind Made Itself Up About You
TTITLE7=Don't Jump Salty
TTITLE8=Come Strollin' Now
EXTD=YEAR: 1972
EXTT0=
EXTT1=
EXTT2=
EXTT3=
EXTT4=
EXTT5=
EXTT6=
EXTT7=
EXTT8=
PLAYORDER=
